<?xml version="1.0" encoding="UTF-8"?>
<svg id="Layer_1" xmlns="http://www.w3.org/2000/svg" version="1.1" viewBox="0 0 1000 879.1">
  <!-- Generator: Adobe Illustrator 30.2.1, SVG Export Plug-In . SVG Version: 2.1.1 Build 1)  -->
  <defs>
    <style>
      .st0 {
        fill: #e7f3ef;
      }
    </style>
  </defs>
  <path class="st0" d="M718.79,652.52c-17.3,10.65-32.57,4.62-47.34-7.57l-14.66-12.1c-13.65-11.26-27.75-.85-38.87,4.97-19.49,10.19-37.15,22.04-53,37.47-13.05,12.7-24.96,25.87-34.64,41.36-10.72,17.16-17.55,50.58-26.93,73.47-5.05,12.31-14.61,19.75-28.34,21.53l-147.7,19.26c-10.24,1.34-20.02,1.68-29.73-.94-12.67-3.4-24.31-8.81-35.37-15.66-50.41-31.25-26.17-81.1-91.5-125.91-10.43-7.16-20.24-11.43-33.42-11.99l-84.94-3.58c-6.64-.28-13.13-1.17-18.6-4.83-6.01-4.01-8.85-11.1-8.91-18.9l-1.36-184.48c-.21-29.04,29.27-26.66,37.24-39.45,8.6-13.83,15.02-28.18,21.85-42.98l20.03-43.51c4.72-10.25,7.91-20.24,6.19-31.83-5-33.8-21-47.95-16.45-95.83,3.43-36.14,7.27-58.39,26.82-89.84,13.26-21.33,19.83-39.51,48.1-48.6,17.82-5.73,35.53-10.45,53.77-15.08,11.2-2.84,22.01-3.7,33.66-4.68,36.52,4.56,70.89.79,93.92,34.04,4.42,6.37,9.06,12.38,14.03,18.21,11.5,13.47,27.87,8.9,43.9,4.14,33.4-9.93,57.28,3.19,87.26,15.89,36.8,9.87,71.65,14.1,107.25-2.16l26.06-11.9c10.2-4.66,20.54-8.68,31.78-10.38,19.13-2.91,37.92-3.95,57.35-3.88,53.42.19,72.13,23.78,101.19,10.47,18.01-8.24,30.03-20.15,50.5-29.76,39.11-18.38,62.57,37.02,69.59,65.75,4.8,19.62,8.03,27.44,23.23,37.51,14.26,9.46,22.37,25.23,19.97,42.19-2.81,19.94-14.81,36.5-32.09,46.27l-20.71,11.7c-8.01,4.53-14.16,10.52-18.41,19.01l-52,103.9c-9.91,19.82-18.6,39.03-30.57,57.53-11.07,17.13-33.88,30.11-42.6,48.83-11.5,24.68-13.87,67.45-23.13,92.12-7.87,20.99-23.49,38.61-42.38,50.23h-.01ZM744.92,597.61c9.46-24.99,11.03-64.91,23.62-93.71,9.28-21.23,33.57-36.56,42.64-49.66,12.58-18.13,20.99-37.65,30.91-57.46l52.05-103.89c5.72-11.41,13.78-20.06,24.69-26.25l22.01-12.47c10.2-5.78,16.87-14.33,21.18-25.2,5.09-12.84,1.19-26.9-11.01-34.43-38.37-23.65-19.92-58.02-54.77-97.43-23.75-26.86-60.15,43.88-112.54,29.36l-21.01-5.82c-14.56-4.04-28.91-6.97-44.31-6.98-20.35-.02-40.4.28-60.33,4.39-34.86,7.19-58.91,34.69-111.44,32.46-19.6-.84-39.3-2.1-57.44-9.49l-32.42-13.21c-31.16-12.7-46.68,1.15-72.89,2.89s-36.85-17.51-50.07-35.44c-16.09-21.81-36.87-20.78-61.45-23.9-14.27-1.82-27.94-1.9-42.13,1.35-19.6,4.47-38.47,9.8-57.6,15.84-11.54,3.65-20.34,10.57-26.76,20.76-6.99,11.1-13.39,22.13-19.69,33.77-11.05,20.43-14.69,42.67-16.89,65.68-4.81,50.19,11.34,59.32,16.26,97.06,1.91,14.61-1.27,27.86-8.01,40.51-6.74,12.66-11.19,24.29-16.88,36.73-7.37,16.09-14.44,31.63-23.03,47.04-14.44,25.91-37.54,15.89-37.39,36.47l1.33,181.91c.02,2.53.81,4.94,2.43,5.89,1.23.71,3.26,1.28,5.34,1.38l91.4,4.15c14.71.67,26.67,5.69,38.38,13.85,18.9,13.16,35.27,28.65,46.37,49,21.63,39.69,14.37,65.58,64.29,86.87,10.36,4.42,20.17,6.6,31.92,5.06l151.28-19.74c7.76-1.01,12.42-4.9,15.1-11.78,15.38-39.49,13.69-60.45,41.36-94.4,22.45-27.53,49.02-49.99,80.83-65.97,7.77-3.9,14.44-8.34,22.96-10.43,33.13-8.11,44.03,24.68,66.74,28.8,12.66,2.3,38.4-26.22,44.96-43.56v-.02Z"/>
</svg>